<svg width="24" height="24" viewBox="0 0 24 24" fill="none" xmlns="http://www.w3.org/2000/svg">
<path d="M11.5369 11.4629L1.46924 22.0107C1.58228 22.4113 1.78544 22.7808 2.06319 23.091C2.34093 23.4011 2.68591 23.6436 3.07174 23.7999C3.45757 23.9563 3.87405 24.0224 4.28933 23.9931C4.70461 23.9638 5.1077 23.84 5.46779 23.6311L16.7958 17.1794L11.5369 11.4629Z" fill="#EA4335" style="fill:#EA4335;fill:color(display-p3 0.9176 0.2627 0.2078);fill-opacity:1;"/>
<path d="M21.7169 9.66999L16.8181 6.86426L11.3042 11.703L16.8407 17.1645L21.7019 14.3887C22.1326 14.1632 22.4933 13.8242 22.745 13.4083C22.9967 12.9924 23.1298 12.5155 23.1298 12.0294C23.1298 11.5432 22.9967 11.0664 22.745 10.6505C22.4933 10.2346 22.1326 9.89549 21.7019 9.66999H21.7169Z" fill="#FBBC04" style="fill:#FBBC04;fill:color(display-p3 0.9843 0.7373 0.0157);fill-opacity:1;"/>
<path d="M1.4692 1.99536C1.40835 2.22034 1.37807 2.45248 1.37918 2.68554V21.3204C1.37979 21.5534 1.41004 21.7853 1.4692 22.0106L11.8819 11.7329L1.4692 1.99536Z" fill="#4285F4" style="fill:#4285F4;fill:color(display-p3 0.2588 0.5216 0.9569);fill-opacity:1;"/>
<path d="M11.6119 12.0032L16.8183 6.8643L5.5053 0.382606C5.0797 0.133346 4.59564 0.00133073 4.10243 5.36551e-06C3.50676 -0.00117507 2.92704 0.192452 2.45164 0.55137C1.97624 0.910288 1.63125 1.41481 1.46924 1.98803L11.6119 12.0032Z" fill="#34A853" style="fill:#34A853;fill:color(display-p3 0.2039 0.6588 0.3255);fill-opacity:1;"/>
</svg>
