<svg width="24" height="24" viewBox="0 0 24 24" fill="none" xmlns="http://www.w3.org/2000/svg">
<path d="M2.65995 22.5794C2.17632 22.5794 1.93451 22.3778 1.93451 21.9748C1.93451 21.8539 1.97481 21.7431 2.05542 21.6423L16.9874 1.99497C17.1285 1.81361 17.2695 1.67255 17.4106 1.5718C17.5718 1.47104 17.7934 1.42066 18.0756 1.42066H21.2191C21.7028 1.42066 21.9446 1.62218 21.9446 2.0252C21.9446 2.14611 21.9043 2.25694 21.8237 2.35769L6.89169 22.005C6.75063 22.1864 6.5995 22.3275 6.43829 22.4282C6.29723 22.529 6.08564 22.5794 5.80353 22.5794H2.65995ZM19.0428 22.7305C17.6322 22.7305 16.4836 22.3778 15.597 21.6726C14.7305 20.9471 14.2469 19.9799 14.1461 18.7708C14.1058 18.2469 14.0856 17.7733 14.0856 17.3501C14.1058 16.9068 14.1259 16.403 14.1461 15.8388C14.2267 14.6096 14.6902 13.6423 15.5365 12.937C16.403 12.2116 17.5718 11.8489 19.0428 11.8489C20.534 11.8489 21.7028 12.2116 22.5491 12.937C23.3955 13.6423 23.8589 14.6096 23.9395 15.8388C23.9798 16.403 24 16.9068 24 17.3501C24 17.7733 23.9798 18.2469 23.9395 18.7708C23.8589 19.9799 23.3753 20.9471 22.4887 21.6726C21.602 22.3778 20.4534 22.7305 19.0428 22.7305ZM19.0428 19.466C19.2242 19.466 19.3652 19.4257 19.466 19.3451C19.5667 19.2645 19.6474 19.1537 19.7078 19.0126C19.7683 18.8715 19.7985 18.7204 19.7985 18.5592C19.8388 18.1562 19.8589 17.733 19.8589 17.2897C19.8589 16.8464 19.8388 16.4333 19.7985 16.0504C19.7783 15.7884 19.7078 15.5768 19.5869 15.4156C19.4861 15.2343 19.3048 15.1436 19.0428 15.1436C18.7809 15.1436 18.5894 15.2343 18.4685 15.4156C18.3678 15.5768 18.3073 15.7884 18.2872 16.0504C18.267 16.4333 18.2569 16.8464 18.2569 17.2897C18.2569 17.733 18.267 18.1562 18.2872 18.5592C18.3073 18.7204 18.3375 18.8715 18.3778 19.0126C18.4383 19.1537 18.5189 19.2645 18.6196 19.3451C18.7406 19.4257 18.8816 19.466 19.0428 19.466ZM4.95718 12.1511C3.5466 12.1511 2.39798 11.7985 1.51133 11.0932C0.644836 10.3678 0.161209 9.40051 0.0604534 8.19145C0.0201511 7.66752 0 7.19396 0 6.77079C0.0201511 6.32747 0.0403023 5.82369 0.0604534 5.25946C0.141058 4.03024 0.604534 3.06298 1.45088 2.35769C2.31738 1.63225 3.48615 1.26953 4.95718 1.26953C6.44836 1.26953 7.61713 1.63225 8.46348 2.35769C9.30982 3.06298 9.7733 4.03024 9.8539 5.25946C9.89421 5.82369 9.91436 6.32747 9.91436 6.77079C9.91436 7.19396 9.89421 7.66752 9.8539 8.19145C9.7733 9.40051 9.28967 10.3678 8.40302 11.0932C7.51637 11.7985 6.36776 12.1511 4.95718 12.1511ZM4.95718 8.88666C5.13854 8.88666 5.2796 8.84636 5.38035 8.76575C5.48111 8.68515 5.56171 8.57432 5.62217 8.43326C5.68262 8.2922 5.71285 8.14107 5.71285 7.97986C5.75315 7.57684 5.7733 7.15366 5.7733 6.71034C5.7733 6.26701 5.75315 5.85391 5.71285 5.47104C5.69269 5.20908 5.62217 4.99749 5.50126 4.83628C5.4005 4.65492 5.21914 4.56424 4.95718 4.56424C4.69521 4.56424 4.50378 4.65492 4.38287 4.83628C4.28212 4.99749 4.22166 5.20908 4.20151 5.47104C4.18136 5.85391 4.17128 6.26701 4.17128 6.71034C4.17128 7.15366 4.18136 7.57684 4.20151 7.97986C4.22166 8.14107 4.25189 8.2922 4.29219 8.43326C4.35264 8.57432 4.43325 8.68515 4.534 8.76575C4.65491 8.84636 4.79597 8.88666 4.95718 8.88666Z" fill="white" style="fill:white;fill-opacity:1;"/>
</svg>
