<svg width="24" height="24" viewBox="0 0 24 24" fill="none" xmlns="http://www.w3.org/2000/svg">
<g clip-path="url(#clip0_18604_232065)">
<path d="M12 0C18.6274 0 24 5.37258 24 12C24 18.6274 18.6274 24 12 24C5.37258 24 0 18.6274 0 12C0 5.37258 5.37258 0 12 0ZM8 7C7.44772 7 7 7.44772 7 8C7 8.55228 7.44772 9 8 9H13.5859L7.29297 15.293C6.90244 15.6835 6.90244 16.3165 7.29297 16.707C7.68349 17.0976 8.31651 17.0976 8.70703 16.707L15 10.4141V16C15 16.5523 15.4477 17 16 17C16.5523 17 17 16.5523 17 16V8C17 7.44772 16.5523 7 16 7H8Z" fill="#0F172A" style="fill:#0F172A;fill:color(display-p3 0.0588 0.0902 0.1647);fill-opacity:1;"/>
</g>
<defs>
<clipPath id="clip0_18604_232065">
<rect width="24" height="24" fill="white" style="fill:white;fill-opacity:1;"/>
</clipPath>
</defs>
</svg>
