<svg width="24" height="24" viewBox="0 0 24 24" fill="none" xmlns="http://www.w3.org/2000/svg">
<g clip-path="url(#clip0_18604_231284)">
<path d="M12.5714 6.28468C15.3086 7.12011 17.4514 9.2641 18.2846 12.0001C19.1223 9.26296 21.2651 7.12125 24 6.28582C21.2651 5.45039 19.1223 3.30868 18.2846 0.571533C17.4514 3.30753 15.3086 5.44925 12.5714 6.28468ZM13.7143 20.5715C15.0834 20.9887 16.1543 22.0607 16.5703 23.4287C16.9886 22.0595 18.0606 20.9887 19.4286 20.5715C18.0606 20.1532 16.9897 19.0835 16.5703 17.7144C16.1543 19.0824 15.0834 20.1532 13.7143 20.5715ZM6.856 6.28582C5.856 9.56925 3.28114 12.143 0 13.1441C3.28686 14.1498 5.856 16.719 6.86171 20.0058C7.86171 16.7212 10.4366 14.1498 13.7143 13.1441C10.4366 12.1452 7.86171 9.57039 6.856 6.28582Z" fill="#0F172A" style="fill:#0F172A;fill:color(display-p3 0.0588 0.0902 0.1647);fill-opacity:1;"/>
</g>
<defs>
<clipPath id="clip0_18604_231284">
<rect width="24" height="24" fill="white" style="fill:white;fill-opacity:1;"/>
</clipPath>
</defs>
</svg>
