<svg width="128" height="24" viewBox="0 0 128 24" fill="none" xmlns="http://www.w3.org/2000/svg">
<path d="M63.7928 0C59.0885 0 55.2315 0.319953 52.2218 0.956343C49.2579 1.61031 47.0709 2.50337 45.661 3.63551C44.2511 4.76765 43.5444 6.08262 43.5444 7.58394V22.1365H52.6719V9.37709C52.6719 8.48403 53.0199 7.65778 53.7161 6.90184C54.4123 6.14591 55.5796 5.54117 57.2215 5.08409C58.8599 4.63053 61.075 4.40199 63.8631 4.40199C66.6513 4.40199 68.905 4.63053 70.5048 5.08409C72.1045 5.53765 73.2297 6.1424 73.8871 6.90184C74.5446 7.65778 74.8716 8.48403 74.8716 9.37709V22.133H84.0447V7.58394C84.0447 6.1002 83.338 4.78523 81.9281 3.63551C80.5182 2.50337 78.3313 1.61031 75.3674 0.956343C72.4034 0.319953 68.5464 0 63.7963 0L63.7928 0Z" fill="white" style="fill:white;fill-opacity:1;"/>
<path d="M125.473 3.63551C124.063 2.50337 121.876 1.61031 118.912 0.956343C115.948 0.319953 112.091 0 107.341 0C102.591 0 98.7801 0.319953 95.7704 0.956343C92.8064 1.61031 90.6195 2.50337 89.2096 3.63551C87.7997 4.76765 87.093 6.08263 87.093 7.58394V16.3457C87.093 17.8576 87.7997 19.1866 89.2096 20.3293C90.6195 21.472 92.8064 22.3721 95.7704 23.0331C98.7801 23.6765 102.637 24 107.341 24C112.046 24 115.948 23.6765 118.912 23.0331C121.876 22.3721 124.063 21.472 125.473 20.3293C126.883 19.1691 127.59 17.8435 127.59 16.3457V7.58394C127.59 6.10021 126.883 4.78523 125.473 3.63551ZM118.406 11.9016V14.5491C118.406 15.4492 118.079 16.2824 117.422 17.0454C116.764 17.8084 115.639 18.4202 114.039 18.8772C112.44 19.3343 110.228 19.5628 107.398 19.5628C104.567 19.5628 102.398 19.3343 100.756 18.8772C99.1176 18.4202 97.9468 17.8084 97.2506 17.0454C96.5545 16.2824 96.2064 15.4492 96.2064 14.5491V11.9016V9.38412C96.2064 8.49106 96.5545 7.66481 97.2506 6.90888C97.9468 6.15294 99.1141 5.5482 100.756 5.09112C102.394 4.63756 104.61 4.40902 107.398 4.40902C110.186 4.40902 112.44 4.63756 114.039 5.09112C115.639 5.54468 116.764 6.14943 117.422 6.90888C118.079 7.66481 118.406 8.49106 118.406 9.38412V11.9016Z" fill="white" style="fill:white;fill-opacity:1;"/>
<path d="M20.2484 23.8418C24.9527 23.8418 28.8097 23.5218 31.8194 22.8854C34.7834 22.2314 36.9703 21.3384 38.3802 20.2063C39.7901 19.0741 40.4968 17.7591 40.4968 16.2578V1.65601H31.3694V14.4612C31.3694 15.3542 31.0213 16.1805 30.3251 16.9364C29.629 17.6923 28.4617 18.2971 26.8197 18.7542C25.1813 19.2077 22.9662 19.4363 20.1781 19.4363C17.3899 19.4363 15.1362 19.2077 13.5364 18.7542C11.9367 18.3006 10.8116 17.6958 10.1541 16.9364C9.4966 16.1805 9.16962 15.3542 9.16962 14.4612V1.65601H0V16.2578C0 17.7416 0.706707 19.0565 2.11661 20.2063C3.5265 21.3384 5.71343 22.2314 8.67738 22.8854C11.6413 23.5218 15.4983 23.8418 20.2484 23.8418Z" fill="white" style="fill:white;fill-opacity:1;"/>
</svg>
