<svg width="258" height="174" viewBox="0 0 258 174" fill="none" xmlns="http://www.w3.org/2000/svg">
<g filter="url(#filter0_dii_17974_283131)">
<path d="M220.043 36.1807C212.94 30.5135 201.947 26.0507 187.04 22.7797C172.133 19.5848 152.737 18 128.839 18C104.941 18 85.7877 19.5975 70.638 22.7797C55.7307 26.0507 44.7383 30.5135 37.6353 36.1807C30.5451 41.8479 27 48.4152 27 55.9208V99.7369C27 107.306 30.5451 113.937 37.6481 119.655C44.7511 125.372 55.7435 129.873 70.6508 133.17C85.7877 136.39 105.184 138 128.852 138C152.52 138 172.146 136.39 187.053 133.17C201.96 129.873 212.953 125.36 220.056 119.655C227.159 113.861 230.704 107.217 230.704 99.7369V55.9208C230.704 48.504 227.159 41.9239 220.056 36.1807H220.043ZM88.0958 35.1664C98.2466 32.3518 111.968 30.9445 129.234 30.9445C146.501 30.9445 160.465 32.3518 170.373 35.1664C170.501 35.2044 170.615 35.2425 170.743 35.2805C166.484 35.103 161.995 35.0143 157.238 35.0143C140.176 35.0143 126.187 36.168 115.271 38.4628C104.521 40.8209 96.5888 44.0412 91.4751 48.1236C86.3615 52.206 83.7983 56.9477 83.7983 62.3613V104.162C80.9036 103.769 78.3276 103.261 76.096 102.64C70.2937 101.005 66.213 98.8241 63.8284 96.0856C61.4437 93.3597 60.2577 90.3803 60.2577 87.1601V58.0507C61.0229 53.9303 63.0505 50.0507 66.3788 46.4374C70.689 41.7464 77.9323 37.981 88.0958 35.1664ZM109.341 69.0935V58.9382C109.341 58.9382 121.711 51.8891 140.775 51.8891V96.4279C140.775 102.615 135.432 104.098 128.852 104.098C122.272 104.098 116.929 102.615 116.929 96.4279V69.0935H109.354H109.341ZM197.42 93.8288C197.42 99.42 195.393 104.58 191.325 109.322C187.257 114.063 180.281 117.854 170.373 120.694C160.465 123.534 146.756 124.954 129.234 124.954C111.713 124.954 98.5526 123.559 88.4274 120.783C92.2403 120.922 96.2317 120.986 100.427 120.986C117.49 120.986 131.479 119.832 142.395 117.537C153.145 115.179 161.077 111.959 166.19 107.876C171.304 103.794 173.867 99.0523 173.867 93.6387V51.8257C176.762 52.2187 179.338 52.7258 181.569 53.3471C187.372 54.9826 191.452 57.1632 193.837 59.9017C196.222 62.6276 197.408 65.607 197.408 68.8273V77.3978V93.8162L197.42 93.8288Z" fill="#01B3FF" style="fill:#01B3FF;fill:color(display-p3 0.0038 0.7012 1.0000);fill-opacity:1;"/>
</g>
<defs>
<filter id="filter0_dii_17974_283131" x="0" y="0" width="257.704" height="174" filterUnits="userSpaceOnUse" color-interpolation-filters="sRGB">
<feFlood flood-opacity="0" result="BackgroundImageFix"/>
<feColorMatrix in="SourceAlpha" type="matrix" values="0 0 0 0 0 0 0 0 0 0 0 0 0 0 0 0 0 0 127 0" result="hardAlpha"/>
<feOffset dy="9"/>
<feGaussianBlur stdDeviation="13.5"/>
<feComposite in2="hardAlpha" operator="out"/>
<feColorMatrix type="matrix" values="0 0 0 0 0.00392157 0 0 0 0 0.701961 0 0 0 0 1 0 0 0 0.5 0"/>
<feBlend mode="normal" in2="BackgroundImageFix" result="effect1_dropShadow_17974_283131"/>
<feBlend mode="normal" in="SourceGraphic" in2="effect1_dropShadow_17974_283131" result="shape"/>
<feColorMatrix in="SourceAlpha" type="matrix" values="0 0 0 0 0 0 0 0 0 0 0 0 0 0 0 0 0 0 127 0" result="hardAlpha"/>
<feOffset dy="1.5"/>
<feGaussianBlur stdDeviation="1.5"/>
<feComposite in2="hardAlpha" operator="arithmetic" k2="-1" k3="1"/>
<feColorMatrix type="matrix" values="0 0 0 0 1 0 0 0 0 1 0 0 0 0 1 0 0 0 0.4 0"/>
<feBlend mode="normal" in2="shape" result="effect2_innerShadow_17974_283131"/>
<feColorMatrix in="SourceAlpha" type="matrix" values="0 0 0 0 0 0 0 0 0 0 0 0 0 0 0 0 0 0 127 0" result="hardAlpha"/>
<feOffset dy="-1.5"/>
<feGaussianBlur stdDeviation="1.5"/>
<feComposite in2="hardAlpha" operator="arithmetic" k2="-1" k3="1"/>
<feColorMatrix type="matrix" values="0 0 0 0 0.00784314 0 0 0 0 0.517647 0 0 0 0 0.780392 0 0 0 1 0"/>
<feBlend mode="normal" in2="effect2_innerShadow_17974_283131" result="effect3_innerShadow_17974_283131"/>
</filter>
</defs>
</svg>
