<svg width="306" height="180" viewBox="0 0 306 180" fill="none" xmlns="http://www.w3.org/2000/svg">
<path d="M289.564 27.271C278.91 18.7702 262.421 12.0761 240.06 7.16957C217.699 2.37718 188.605 0 152.759 0C116.912 0 88.1815 2.3962 65.4571 7.16957C43.0961 12.0761 26.6075 18.7702 15.953 27.271C5.31767 35.7718 0 45.6228 0 56.8811V122.605C0 133.959 5.31767 143.905 15.9721 152.482C26.6266 161.059 43.1152 167.81 65.4762 172.754C88.1815 177.585 117.276 180 152.778 180C188.28 180 217.718 177.585 240.079 172.754C262.44 167.81 278.929 161.04 289.583 152.482C300.238 143.791 305.556 133.826 305.556 122.605V56.8811C305.556 45.7559 300.238 35.8859 289.583 27.271H289.564ZM91.6437 25.7496C106.87 21.5277 127.452 19.4168 153.352 19.4168C179.251 19.4168 200.197 21.5277 215.06 25.7496C215.251 25.8067 215.423 25.8637 215.614 25.9208C209.225 25.6545 202.492 25.5214 195.357 25.5214C169.764 25.5214 148.78 27.252 132.406 30.6941C116.281 34.2314 104.383 39.0618 96.7127 45.1854C89.0423 51.309 85.1975 58.4216 85.1975 66.542V129.242C80.8553 128.653 76.9914 127.892 73.644 126.96C64.9406 124.507 58.8195 121.236 55.2425 117.128C51.6656 113.04 49.8866 108.571 49.8866 103.74V60.0761C51.0343 53.8954 54.0757 48.0761 59.0682 42.6561C65.5336 35.6197 76.3984 29.9715 91.6437 25.7496ZM123.511 76.6403V61.4073C123.511 61.4073 142.066 50.8336 170.663 50.8336V117.642C170.663 126.922 162.648 129.147 152.778 129.147C142.908 129.147 134.893 126.922 134.893 117.642V76.6403H123.531H123.511ZM255.631 113.743C255.631 122.13 252.589 129.87 246.487 136.983C240.385 144.095 229.922 149.781 215.06 154.041C200.197 158.301 179.634 160.431 153.352 160.431C127.069 160.431 107.329 158.339 92.141 154.174C97.8604 154.384 103.848 154.479 110.141 154.479C135.734 154.479 156.718 152.748 173.092 149.306C189.217 145.769 201.115 140.938 208.785 134.815C216.456 128.691 220.301 121.578 220.301 113.458V50.7385C224.643 51.3281 228.507 52.0887 231.854 53.0206C240.558 55.4738 246.679 58.7449 250.256 62.8526C253.833 66.9414 255.612 71.4105 255.612 76.2409V89.0967V113.724L255.631 113.743Z" fill="#01B3FF" style="fill:#01B3FF;fill:color(display-p3 0.0038 0.7012 1.0000);fill-opacity:1;"/>
</svg>
