<svg width="256" height="48" viewBox="0 0 256 48" fill="none" xmlns="http://www.w3.org/2000/svg">
<path d="M127.585 0C118.177 0 110.463 0.639906 104.443 1.91269C98.5155 3.22063 94.1416 5.00674 91.3218 7.27102C88.502 9.53531 87.0886 12.1652 87.0886 15.1679V44.2731H105.343V18.7542C105.343 16.9681 106.04 15.3156 107.432 13.8037C108.824 12.2918 111.159 11.0823 114.443 10.1682C117.72 9.26106 122.15 8.80398 127.726 8.80398C133.302 8.80398 137.81 9.26106 141.009 10.1682C144.209 11.0753 146.459 12.2848 147.774 13.8037C149.089 15.3156 149.743 16.9681 149.743 18.7542V44.266H168.089V15.1679C168.089 12.2004 166.676 9.57047 163.856 7.27102C161.036 5.00674 156.662 3.22063 150.734 1.91269C144.807 0.639906 137.093 0 127.592 0L127.585 0Z" fill="black" style="fill:black;fill-opacity:1;"/>
<path d="M250.946 7.27102C248.126 5.00674 243.753 3.22063 237.825 1.91269C231.897 0.639906 224.183 0 214.683 0C205.182 0 197.56 0.639906 191.541 1.91269C185.613 3.22063 181.239 5.00674 178.419 7.27102C175.599 9.53531 174.186 12.1653 174.186 15.1679V32.6915C174.186 35.7152 175.599 38.3733 178.419 40.6587C181.239 42.944 185.613 44.7442 191.541 46.0662C197.56 47.3531 205.274 48 214.683 48C224.091 48 231.897 47.3531 237.825 46.0662C243.753 44.7442 248.126 42.944 250.946 40.6587C253.766 38.3381 255.179 35.6871 255.179 32.6915V15.1679C255.179 12.2004 253.766 9.57047 250.946 7.27102ZM236.812 23.8031V29.0982C236.812 30.8983 236.158 32.5649 234.843 34.0908C233.528 35.6168 231.278 36.8403 228.078 37.7545C224.879 38.6686 220.456 39.1257 214.795 39.1257C209.134 39.1257 204.796 38.6686 201.512 37.7545C198.235 36.8403 195.893 35.6168 194.501 34.0908C193.109 32.5649 192.412 30.8983 192.412 29.0982V23.8031V18.7682C192.412 16.9821 193.109 15.3296 194.501 13.8178C195.893 12.3059 198.228 11.0964 201.512 10.1822C204.789 9.27512 209.219 8.81805 214.795 8.81805C220.371 8.81805 224.879 9.27512 228.078 10.1822C231.278 11.0894 233.528 12.2989 234.843 13.8178C236.158 15.3296 236.812 16.9821 236.812 18.7682V23.8031Z" fill="black" style="fill:black;fill-opacity:1;"/>
<path d="M40.4968 47.684C49.9055 47.684 57.6195 47.0441 63.6388 45.7713C69.5667 44.4634 73.9406 42.6773 76.7604 40.413C79.5802 38.1487 80.9936 35.5188 80.9936 32.5161V3.3125H62.7387V28.9228C62.7387 30.7089 62.0426 32.3614 60.6503 33.8733C59.2579 35.3852 56.9233 36.5946 53.6394 37.5088C50.3626 38.4159 45.9325 38.873 40.3562 38.873C34.7798 38.873 30.2724 38.4159 27.0729 37.5088C23.8733 36.6017 21.6231 35.3922 20.3082 33.8733C18.9932 32.3614 18.3392 30.7089 18.3392 28.9228V3.3125H0V32.5161C0 35.4836 1.41341 38.1135 4.23321 40.413C7.05301 42.6773 11.4269 44.4634 17.3548 45.7713C23.2827 47.0441 30.9967 47.684 40.4968 47.684Z" fill="black" style="fill:black;fill-opacity:1;"/>
</svg>
