<svg width="24" height="24" viewBox="0 0 24 24" fill="none" xmlns="http://www.w3.org/2000/svg">
<g clip-path="url(#clip0_17972_276804)">
<mask id="mask0_17972_276804" style="mask-type:luminance" maskUnits="userSpaceOnUse" x="0" y="0" width="24" height="24">
<path d="M24 0H0V24H24V0Z" fill="white" style="fill:white;fill-opacity:1;"/>
</mask>
<g mask="url(#mask0_17972_276804)">
<path d="M23.0155 7.33625C22.4088 5.91091 21.551 4.63231 20.442 3.5214C19.333 2.41048 18.0777 1.55109 16.655 0.943232C15.1694 0.31441 13.6002 0 11.989 0C10.357 0 8.78776 0.31441 7.32314 0.943232C5.90035 1.55109 4.62404 2.41048 3.5151 3.5214C2.40618 4.63231 1.54832 5.91091 0.941544 7.33625C0.313849 8.80352 0 10.3756 0 12.0105C0 13.6244 0.313849 15.1965 0.941544 16.6847C1.54832 18.11 2.40618 19.3886 3.5151 20.4996C4.62404 21.6105 5.90035 22.4698 7.32314 23.0568C8.80872 23.6856 10.3779 24 11.989 24C13.6002 24 15.1694 23.6856 16.655 23.0568C18.0777 22.449 19.354 21.5895 20.463 20.4786C21.5719 19.3677 22.4298 18.0891 23.0366 16.6638C23.6642 15.1756 23.9781 13.6035 23.9781 11.9895C23.9781 10.3756 23.6433 8.80352 23.0155 7.33625ZM8.0136 10.8786C8.4948 8.95016 10.2524 7.54582 12.3238 7.54582H20.6513C21.1953 8.57296 21.53 9.7048 21.6556 10.8786H8.0136ZM21.6556 13.1423C21.53 14.3162 21.1743 15.4481 20.6513 16.4751H12.3238C10.2524 16.4751 8.51576 15.0498 8.0136 13.1423H21.6556ZM5.10527 5.11441C6.94652 3.26987 9.39456 2.26375 11.989 2.26375C14.5835 2.26375 17.0316 3.26987 18.8727 5.11441C18.9355 5.1773 18.9774 5.21922 19.0402 5.2821H12.3238C10.5244 5.2821 8.85056 5.9738 7.5742 7.2524C6.5699 8.25856 5.92128 9.51616 5.71205 10.8786H2.32248C2.57356 8.69872 3.53603 6.68646 5.10527 5.11441ZM11.989 21.7572C9.39456 21.7572 6.94652 20.751 5.10527 18.9066C3.53603 17.3346 2.57356 15.3013 2.32248 13.1423H5.71205C5.94221 14.5048 6.59082 15.7625 7.5742 16.7686C8.85056 18.0472 10.5244 18.7389 12.3238 18.7389H19.0402C18.9774 18.8018 18.9355 18.8437 18.8727 18.9066C17.0316 20.751 14.5835 21.7572 11.989 21.7572Z" fill="white" style="fill:white;fill-opacity:1;"/>
</g>
</g>
<defs>
<clipPath id="clip0_17972_276804">
<rect width="24" height="24" fill="white" style="fill:white;fill-opacity:1;"/>
</clipPath>
</defs>
</svg>
