<svg width="24" height="24" viewBox="0 0 24 24" fill="none" xmlns="http://www.w3.org/2000/svg">
<g clip-path="url(#clip0_18598_231219)">
<path d="M17.0715 1.12415C23.078 3.92502 25.6766 11.0648 22.8758 17.0713C21.9421 19.0734 19.5622 19.9396 17.5601 19.006C17.5349 18.9943 17.5109 18.9805 17.4861 18.9683L11.4709 20.2332L10.0702 23.2371C9.83679 23.7376 9.24181 23.9542 8.74127 23.7208L5.11604 22.0303C4.6155 21.7969 4.39895 21.2019 4.63235 20.7014L6.03269 17.6983L3.13343 12.2766C3.10876 12.2657 3.08369 12.2556 3.05914 12.2441C1.05698 11.3105 0.190759 8.93059 1.12438 6.92843C3.92525 0.921948 11.065 -1.67671 17.0715 1.12415ZM8.37484 10.3094C7.7362 11.6789 6.42073 12.5157 5.01244 12.6097L6.97202 16.2755L8.78463 17.1207L9.66 15.2435C8.13123 14.1432 7.54959 12.0791 8.37484 10.3094ZM15.6253 13.6903C14.8001 15.4601 12.845 16.3413 11.0195 15.8774L10.1441 17.7547L11.9567 18.5999L16.0235 17.7443C15.1908 16.6051 14.9868 15.0596 15.6253 13.6903ZM16.2263 2.93677C11.2209 0.602713 5.27105 2.76826 2.937 7.77366C2.47019 8.77474 2.9033 9.96471 3.90438 10.4315C4.84299 10.8692 5.94727 10.5155 6.46624 9.64458L6.65822 9.2837C7.17719 8.41275 8.28146 8.05907 9.22008 8.49676C10.1587 8.93444 10.5976 10.0077 10.264 10.9651L10.1109 11.3441C9.77733 12.3015 10.2162 13.3748 11.1548 13.8125C12.0935 14.2501 13.1977 13.8965 13.7167 13.0255L13.9087 12.6646C14.4276 11.7937 15.5319 11.44 16.4705 11.8777C17.4092 12.3154 17.848 13.3886 17.5144 14.346L17.3614 14.7251C17.0278 15.6825 17.4667 16.7557 18.4053 17.1934C19.4064 17.6602 20.5963 17.2271 21.0632 16.226C23.3972 11.2206 21.2317 5.27082 16.2263 2.93677Z" fill="white" style="fill:white;fill-opacity:1;"/>
</g>
<defs>
<clipPath id="clip0_18598_231219">
<rect width="24" height="24" fill="white" style="fill:white;fill-opacity:1;"/>
</clipPath>
</defs>
</svg>
