<svg width="24" height="24" viewBox="0 0 24 24" fill="none" xmlns="http://www.w3.org/2000/svg">
<path fill-rule="evenodd" clip-rule="evenodd" d="M10.3866 23.8133C10.5111 23.9378 10.6711 24 10.8666 24H13.08C13.2577 24 13.4088 23.9378 13.5333 23.8133C13.6755 23.6889 13.7466 23.5289 13.7466 23.3333V21.4667C15.0088 21.3067 16.1111 20.9778 17.0533 20.48C17.9955 19.9822 18.7244 19.3333 19.24 18.5333C19.7733 17.7333 20.04 16.8089 20.04 15.76C20.04 14.6756 19.8089 13.7778 19.3466 13.0667C18.8844 12.3378 18.1555 11.7511 17.16 11.3067C16.1644 10.8444 14.8577 10.4622 13.24 10.16C12.2622 9.94667 11.4889 9.74222 10.92 9.54666C10.3511 9.35111 9.94218 9.12 9.69329 8.85333C9.46218 8.58667 9.34663 8.27555 9.34663 7.92C9.34663 7.35111 9.56885 6.93333 10.0133 6.66667C10.4577 6.38222 11.0622 6.24 11.8266 6.24C12.5555 6.24 13.1511 6.39111 13.6133 6.69333C14.0755 6.97778 14.36 7.31555 14.4666 7.70667C14.5733 7.86666 14.6977 7.98222 14.84 8.05333C14.9822 8.12444 15.1511 8.16 15.3466 8.16H18.8666C19.0266 8.16 19.16 8.10667 19.2666 8C19.3733 7.87555 19.4266 7.74222 19.4266 7.6C19.4088 6.96 19.1777 6.29333 18.7333 5.6C18.3066 4.90667 17.6755 4.28444 16.84 3.73333C16.0044 3.18222 14.9733 2.8 13.7466 2.58667V0.666666C13.7466 0.471111 13.6755 0.31111 13.5333 0.186666C13.4088 0.0622222 13.2577 0 13.08 0H10.8666C10.6711 0 10.5111 0.0622222 10.3866 0.186666C10.2622 0.31111 10.2 0.471111 10.2 0.666666V2.53333C8.4044 2.78222 6.99107 3.40444 5.95996 4.4C4.94663 5.39555 4.43996 6.60444 4.43996 8.02667C4.43996 9.12889 4.68885 10.0533 5.18663 10.8C5.68441 11.5289 6.40441 12.1244 7.34663 12.5867C8.30663 13.0311 9.46218 13.3956 10.8133 13.68C11.8622 13.8933 12.6977 14.1067 13.32 14.32C13.96 14.5156 14.4222 14.7467 14.7066 15.0133C14.9911 15.2622 15.1333 15.5822 15.1333 15.9733C15.1333 16.5244 14.8666 16.96 14.3333 17.28C13.8177 17.6 13.0444 17.76 12.0133 17.76C11.3911 17.76 10.8666 17.6889 10.44 17.5467C10.0311 17.3867 9.69329 17.1822 9.42663 16.9333C9.17774 16.6844 8.98218 16.4267 8.83996 16.16C8.71552 16.0178 8.59107 15.9022 8.46663 15.8133C8.34218 15.7244 8.15552 15.68 7.90663 15.68H4.54663C4.38663 15.68 4.24441 15.7422 4.11996 15.8667C4.01329 15.9733 3.95996 16.0978 3.95996 16.24C3.99552 17.0578 4.24441 17.84 4.70663 18.5867C5.16885 19.3156 5.85329 19.9378 6.75996 20.4533C7.68441 20.9689 8.83107 21.3156 10.2 21.4933V23.3333C10.2 23.5289 10.2622 23.6889 10.3866 23.8133Z" fill="white" style="fill:white;fill-opacity:1;"/>
</svg>
