<svg width="24" height="24" viewBox="0 0 24 24" fill="none" xmlns="http://www.w3.org/2000/svg">
<path d="M16.7319 8.27645V6.32148H7.74133C6.43465 6.32148 5.37538 7.38075 5.37538 8.68743C5.37538 9.9941 6.43465 11.0534 7.74133 11.0534H17.2051C19.5571 11.0534 21.4638 12.9601 21.4638 15.3121C21.4638 17.6641 19.5571 19.5708 17.2051 19.5708H7.26814L7.26814 21.5258C7.26814 21.9037 6.84693 22.1291 6.53247 21.9195L2.18044 19.0181C1.89949 18.8308 1.89949 18.418 2.18044 18.2307L6.53247 15.3293C6.84693 15.1197 7.26814 15.3451 7.26814 15.7231L7.26814 17.678H17.2051C18.5118 17.678 19.5711 16.6188 19.5711 15.3121C19.5711 14.0054 18.5118 12.9461 17.2051 12.9461H7.74133C5.38931 12.9461 3.48262 11.0394 3.48262 8.68743C3.48262 6.33541 5.38931 4.42872 7.74133 4.42872H16.7319V2.47374C16.7319 2.09581 17.1531 1.87038 17.4676 2.08002L21.8196 4.98138C22.1006 5.16868 22.1006 5.58152 21.8196 5.76882L17.4676 8.67017C17.1531 8.87981 16.7319 8.65439 16.7319 8.27645Z" fill="#0F172A" style="fill:#0F172A;fill:color(display-p3 0.0588 0.0902 0.1647);fill-opacity:1;"/>
</svg>
